<svg xmlns="http://www.w3.org/2000/svg" width="30.695" height="30.755" viewBox="0 0 30.695 30.755"><defs><style>.a{fill:#15232c;fill-rule:evenodd;}</style></defs><g transform="translate(0)"><path class="a" d="M1146.167,298.751A5.193,5.193,0,0,1,1147,296.1a4.791,4.791,0,0,1,8.321.649,4.749,4.749,0,0,1-.914,5.376,4.841,4.841,0,0,1-6.9-.023l-.508-.633a5.092,5.092,0,0,1-.827-2.716Zm3.664-9.731a1.1,1.1,0,0,1,.1-.563,1.164,1.164,0,0,1,2.185.323v.36a1.164,1.164,0,0,1-.961.961h-.36a1.166,1.166,0,0,1-.961-1.081Zm-4.2,2.763a4.6,4.6,0,0,0-1.433,1.15c-.109.136-.208.206-.319.342s-.188.247-.28.381a6.652,6.652,0,0,0-1.01,2.233,8.993,8.993,0,0,0,1.35,8.217c.1.119.156.165.251.29a4.557,4.557,0,0,0,.494.587,9.105,9.105,0,0,0,4.094,2.333,8.4,8.4,0,0,0,8.16-2.184c.181-.18.34-.325.512-.51a8.909,8.909,0,0,0,2.056-5.212,7.915,7.915,0,0,0-.991-4.655,3.829,3.829,0,0,0-.245-.416,14.055,14.055,0,0,0-1.106-1.417,9.215,9.215,0,0,0-1.381-1.2c0-1.321,0-2.643,0-3.965a2.5,2.5,0,0,0-.384-1.6,1.227,1.227,0,0,0-.577-.445,2.716,2.716,0,0,0-.841-.179h-6.007a3.143,3.143,0,0,0-.85.172l-.546.234a2.251,2.251,0,0,0-.933,1.531Z" transform="translate(-1128.807 -276.946)"/><path class="a" d="M1116.438,289.237a1.153,1.153,0,0,1,2.306-.052,1.153,1.153,0,0,1-2.306.052ZM1114,307.377a10.369,10.369,0,0,0,2.342-.393,4.555,4.555,0,0,0,.65-.251,6.894,6.894,0,0,0,2.266-1.4,15.717,15.717,0,0,1-1.177-1.586,9.281,9.281,0,0,1-.865-1.9c-.2.053-.329.245-.642.5a4.792,4.792,0,1,1-.859-8.07,7.2,7.2,0,0,1,1.441,1.022,6.3,6.3,0,0,1,1.424-2.781c.124-.153.175-.274.3-.417l.969-1.133a.607.607,0,0,0,.19-.53l-.006-2.829c0-.328.062-.359.062-.658l-3.235-1.51c-.708-.287-.526-.412-1.51-.412a1.523,1.523,0,0,0-.807.214,3.056,3.056,0,0,0-1.407,1.777c-.216.53-.448.943-.668,1.434a14.855,14.855,0,0,0-.662,1.5,8.4,8.4,0,0,0-2.377.866,7.572,7.572,0,0,0-1.4.944,8.393,8.393,0,0,0-2.451,3.2,8.94,8.94,0,0,0-.74,3.013V299.5a6.838,6.838,0,0,0,.519,2.2,8.87,8.87,0,0,0,1.538,2.607,8.17,8.17,0,0,0,2.969,2.258,7.931,7.931,0,0,0,3.2.82Z" transform="translate(-1104.845 -276.622)"/><path class="a" d="M1138.946,267.642a1.322,1.322,0,0,1,2.643-.06,1.407,1.407,0,0,1-.737,1.246,1.345,1.345,0,0,1-1.906-1.185Zm4.553-6.127a2.949,2.949,0,0,0-1.187.3,3.071,3.071,0,0,0-1.624,2.821c-.907-.435-3.424.707-3.424,2.643a2.986,2.986,0,0,0,1.012,2.652,3.043,3.043,0,0,0,4.816-1.15,3.874,3.874,0,0,0,.24-1.262,1.6,1.6,0,0,0,.686.047,5.514,5.514,0,0,0,.936-.227A3.22,3.22,0,0,0,1146,268.76a3.03,3.03,0,0,0,4.585-1.134,2.791,2.791,0,0,0,.017-2.567,7.385,7.385,0,0,1-5.731-3.339,3.073,3.073,0,0,0-.967-.2Zm3.016,4.805A1.313,1.313,0,0,1,1147.9,265a1.323,1.323,0,0,1-.12,2.643,1.322,1.322,0,0,1-1.261-1.322Zm-4.145-1.8a1.455,1.455,0,0,1,.408-.914l.065-.055a1.458,1.458,0,0,1,.849-.338,1.327,1.327,0,1,1-1.321,1.308Z" transform="translate(-1125.671 -261.515)"/></g></svg>